<svg xmlns="http://www.w3.org/2000/svg" viewBox="0 0 135 40" fill="none">
  <rect width="135" height="40" rx="5" fill="#000000"/>
  <g transform="translate(10, 8)">
    <path d="M2.5 1.5C2.1 1.9 1.9 2.5 1.9 3.3v20.4c0 .8.2 1.4.6 1.8l.1.1L14.7 13.5v-.2L2.6 1.4l-.1.1z" fill="#00F0FF"/>
    <path d="M18.7 17.6l-4-4v-.2l4-4 .1.1 4.7 2.7c1.3.7 1.3 2 0 2.7l-4.7 2.7-.1.1z" fill="#FFC700"/>
    <path d="M14.7 13.4L2.6 1.3c-.4-.4-1-.3-1.4.1l13.5 13.5-.1.1z" fill="#FF3A44"/>
    <path d="M14.7 13.6L2.6 25.7c-.4.4-.9.3-1.4-.1l13.5-13.5v-.1z" fill="#00E676"/>
  </g>
  <text x="38" y="15" fill="#ffffff" font-family="system-ui, -apple-system, Inter, sans-serif" font-size="6" font-weight="600" letter-spacing="0.05em">GET IT ON</text>
  <text x="38" y="27" fill="#ffffff" font-family="system-ui, -apple-system, Inter, sans-serif" font-size="12" font-weight="700">Google Play</text>
</svg>
